<svg width="30" height="30" viewBox="0 0 30 30" fill="none" xmlns="http://www.w3.org/2000/svg">
<mask id="mask0_168_34" style="mask-type:alpha" maskUnits="userSpaceOnUse" x="0" y="0" width="30" height="30">
<rect width="30" height="30" fill="#D9D9D9"/>
</mask>
<g mask="url(#mask0_168_34)">
<path d="M18.75 26.25H26.25V25.2188C25.7292 24.7396 25.1458 24.375 24.5 24.125C23.8542 23.875 23.1875 23.75 22.5 23.75C21.8125 23.75 21.1458 23.875 20.5 24.125C19.8542 24.375 19.2708 24.7396 18.75 25.2188V26.25ZM22.5 22.5C23.0208 22.5 23.4635 22.3177 23.8281 21.9531C24.1927 21.5885 24.375 21.1458 24.375 20.625C24.375 20.1042 24.1927 19.6615 23.8281 19.2969C23.4635 18.9323 23.0208 18.75 22.5 18.75C21.9792 18.75 21.5365 18.9323 21.1719 19.2969C20.8073 19.6615 20.625 20.1042 20.625 20.625C20.625 21.1458 20.8073 21.5885 21.1719 21.9531C21.5365 22.3177 21.9792 22.5 22.5 22.5ZM15.0625 10.625C13.8542 10.625 12.8229 11.0521 11.9688 11.9062C11.1146 12.7604 10.6875 13.7917 10.6875 15C10.6875 16 10.9688 16.875 11.5313 17.625C12.0938 18.375 12.8333 18.8958 13.75 19.1875C13.75 18.7083 13.7552 18.25 13.7656 17.8125C13.776 17.375 13.8646 16.9792 14.0313 16.625C13.7396 16.4583 13.526 16.2292 13.3906 15.9375C13.2552 15.6458 13.1875 15.3333 13.1875 15C13.1875 14.4792 13.3698 14.0365 13.7344 13.6719C14.099 13.3073 14.5417 13.125 15.0625 13.125C15.375 13.125 15.6719 13.2031 15.9531 13.3594C16.2344 13.5156 16.4688 13.7292 16.6563 14C16.8854 13.8958 17.125 13.8229 17.375 13.7813C17.625 13.7396 17.875 13.7188 18.125 13.7188H19.25C18.9792 12.8229 18.4635 12.0833 17.7031 11.5C16.9427 10.9167 16.0625 10.625 15.0625 10.625ZM11.5625 27.5L11.0625 23.5C10.7917 23.3958 10.5365 23.2708 10.2969 23.125C10.0573 22.9792 9.82292 22.8229 9.59375 22.6562L5.875 24.2188L2.4375 18.2812L5.65625 15.8438C5.63542 15.6979 5.625 15.5573 5.625 15.4219V14.5781C5.625 14.4427 5.63542 14.3021 5.65625 14.1562L2.4375 11.7188L5.875 5.78125L9.59375 7.34375C9.82292 7.17708 10.0625 7.02083 10.3125 6.875C10.5625 6.72917 10.8125 6.60417 11.0625 6.5L11.5625 2.5H18.4375L18.9375 6.5C19.2083 6.60417 19.4635 6.72917 19.7031 6.875C19.9427 7.02083 20.1771 7.17708 20.4063 7.34375L24.125 5.78125L27.5625 11.7188L24.9063 13.75H21.75C21.7292 13.6458 21.7083 13.5365 21.6875 13.4219C21.6667 13.3073 21.6354 13.1979 21.5938 13.0938L24.2813 11.0625L23.0625 8.9375L19.9688 10.25C19.5104 9.77083 19.0052 9.36979 18.4531 9.04688C17.901 8.72396 17.3021 8.47917 16.6563 8.3125L16.25 5H13.7813L13.3438 8.3125C12.6979 8.47917 12.099 8.72396 11.5469 9.04688C10.9948 9.36979 10.4896 9.76042 10.0313 10.2188L6.9375 8.9375L5.71875 11.0625L8.40625 13.0625C8.30208 13.375 8.22917 13.6875 8.1875 14C8.14583 14.3125 8.125 14.6458 8.125 15C8.125 15.3333 8.14583 15.6563 8.1875 15.9688C8.22917 16.2813 8.30208 16.5938 8.40625 16.9063L5.71875 18.9375L6.9375 21.0625L10.0313 19.75C10.5313 20.2708 11.0938 20.7083 11.7188 21.0625C12.3438 21.4167 13.0208 21.6458 13.75 21.75V27.5H11.5625ZM18.125 28.75C17.6042 28.75 17.1615 28.5677 16.7969 28.2031C16.4323 27.8385 16.25 27.3958 16.25 26.875V18.125C16.25 17.6042 16.4323 17.1615 16.7969 16.7969C17.1615 16.4323 17.6042 16.25 18.125 16.25H26.875C27.3958 16.25 27.8385 16.4323 28.2031 16.7969C28.5677 17.1615 28.75 17.6042 28.75 18.125V26.875C28.75 27.3958 28.5677 27.8385 28.2031 28.2031C27.8385 28.5677 27.3958 28.75 26.875 28.75H18.125Z" fill="#1C1B1F"/>
</g>
</svg>
