<svg width="30" height="30" viewBox="0 0 30 30" fill="none" xmlns="http://www.w3.org/2000/svg">
<mask id="mask0_23_165" style="mask-type:alpha" maskUnits="userSpaceOnUse" x="0" y="0" width="30" height="30">
<rect width="30" height="30" fill="#D9D9D9"/>
</mask>
<g mask="url(#mask0_23_165)">
<path d="M8.125 20C9.10417 20 10.0573 20.1094 10.9844 20.3281C11.9115 20.5469 12.8333 20.875 13.75 21.3125V9C12.8958 8.5 11.9896 8.125 11.0312 7.875C10.0729 7.625 9.10417 7.5 8.125 7.5C7.375 7.5 6.63021 7.57292 5.89062 7.71875C5.15104 7.86458 4.4375 8.08333 3.75 8.375V20.75C4.47917 20.5 5.20312 20.3125 5.92188 20.1875C6.64062 20.0625 7.375 20 8.125 20ZM16.25 21.3125C17.1667 20.875 18.0885 20.5469 19.0156 20.3281C19.9427 20.1094 20.8958 20 21.875 20C22.625 20 23.3594 20.0625 24.0781 20.1875C24.7969 20.3125 25.5208 20.5 26.25 20.75V8.375C25.5625 8.08333 24.849 7.86458 24.1094 7.71875C23.3698 7.57292 22.625 7.5 21.875 7.5C20.8958 7.5 19.9271 7.625 18.9688 7.875C18.0104 8.125 17.1042 8.5 16.25 9V21.3125ZM15 25C14 24.2083 12.9167 23.5938 11.75 23.1562C10.5833 22.7188 9.375 22.5 8.125 22.5C7.25 22.5 6.39062 22.6146 5.54688 22.8438C4.70312 23.0729 3.89583 23.3958 3.125 23.8125C2.6875 24.0417 2.26562 24.0312 1.85938 23.7812C1.45312 23.5312 1.25 23.1667 1.25 22.6875V7.625C1.25 7.39583 1.30729 7.17708 1.42188 6.96875C1.53646 6.76042 1.70833 6.60417 1.9375 6.5C2.89583 6 3.89583 5.625 4.9375 5.375C5.97917 5.125 7.04167 5 8.125 5C9.33333 5 10.5156 5.15625 11.6719 5.46875C12.8281 5.78125 13.9375 6.25 15 6.875C16.0625 6.25 17.1719 5.78125 18.3281 5.46875C19.4844 5.15625 20.6667 5 21.875 5C22.9583 5 24.0208 5.125 25.0625 5.375C26.1042 5.625 27.1042 6 28.0625 6.5C28.2917 6.60417 28.4635 6.76042 28.5781 6.96875C28.6927 7.17708 28.75 7.39583 28.75 7.625V22.6875C28.75 23.1667 28.5469 23.5312 28.1406 23.7812C27.7344 24.0312 27.3125 24.0417 26.875 23.8125C26.1042 23.3958 25.2969 23.0729 24.4531 22.8438C23.6094 22.6146 22.75 22.5 21.875 22.5C20.625 22.5 19.4167 22.7188 18.25 23.1562C17.0833 23.5938 16 24.2083 15 25Z" fill="#1C1B1F"/>
</g>
</svg>
