<svg width="30" height="30" viewBox="0 0 30 30" fill="none" xmlns="http://www.w3.org/2000/svg">
<mask id="mask0_23_292" style="mask-type:alpha" maskUnits="userSpaceOnUse" x="0" y="0" width="30" height="30">
<rect width="30" height="30" fill="#D9D9D9"/>
</mask>
<g mask="url(#mask0_23_292)">
<path d="M15 28.75C14.5208 28.75 14.0417 28.7188 13.5625 28.6563C13.0833 28.5938 12.6042 28.5104 12.125 28.4062C10.2917 29.7604 8.27604 30.2448 6.07812 29.8594C3.88021 29.474 2.19791 28.3021 1.03125 26.3438C0.0937482 24.8021 -0.208335 23.1458 0.124998 21.375C0.458332 19.6042 1.26041 18.1146 2.53125 16.9062V16.8125C1.23958 15.625 0.437498 14.1615 0.124998 12.4219C-0.187502 10.6823 0.104165 9.04167 0.999998 7.5C1.77083 6.1875 2.83333 5.19271 4.1875 4.51562C5.54167 3.83854 6.96875 3.60417 8.46875 3.8125C9.13542 2.625 10.0469 1.69271 11.2031 1.01562C12.3594 0.338542 13.625 0 15 0C16.375 0 17.6406 0.338542 18.7969 1.01562C19.9531 1.69271 20.8646 2.625 21.5312 3.8125C23.0312 3.60417 24.4583 3.83854 25.8125 4.51562C27.1667 5.19271 28.2292 6.1875 29 7.5C29.8958 9.04167 30.1875 10.6823 29.875 12.4219C29.5625 14.1615 28.7604 15.625 27.4687 16.8125V16.9062C28.7396 18.1146 29.5417 19.6042 29.875 21.375C30.2083 23.1458 29.9062 24.8021 28.9687 26.3438C27.8021 28.3021 26.1198 29.474 23.9219 29.8594C21.724 30.2448 19.7083 29.7604 17.875 28.4062C17.3958 28.5104 16.9167 28.5938 16.4375 28.6563C15.9583 28.7188 15.4792 28.75 15 28.75ZM9 27.1875C8.33333 26.8125 7.69791 26.3802 7.09375 25.8906C6.48958 25.401 5.9375 24.8646 5.4375 24.2813C4.9375 23.6979 4.49479 23.0677 4.10937 22.3906C3.72396 21.7135 3.40625 21.0104 3.15625 20.2812C2.73958 21.0312 2.53125 21.8281 2.53125 22.6719C2.53125 23.5156 2.75 24.3021 3.1875 25.0312C3.79167 26.0312 4.64062 26.7448 5.73437 27.1719C6.82812 27.599 7.91666 27.6042 9 27.1875ZM21 27.1875C22.0833 27.6042 23.1719 27.599 24.2656 27.1719C25.3594 26.7448 26.2083 26.0312 26.8125 25.0312C27.25 24.3021 27.4687 23.5156 27.4687 22.6719C27.4687 21.8281 27.2604 21.0312 26.8437 20.2812C26.5937 21.0104 26.276 21.7135 25.8906 22.3906C25.5052 23.0677 25.0625 23.6979 24.5625 24.2813C24.0625 24.8646 23.5156 25.401 22.9219 25.8906C22.3281 26.3802 21.6875 26.8125 21 27.1875ZM15 26.25C17.7917 26.25 20.1562 25.2813 22.0937 23.3438C24.0312 21.4063 25 19.0417 25 16.25C25 15.6458 24.9531 15.0677 24.8594 14.5156C24.7656 13.9635 24.625 13.4271 24.4375 12.9062C23.8333 13.3229 23.1667 13.6458 22.4375 13.875C21.7083 14.1042 20.9479 14.2188 20.1562 14.2188C18.0312 14.2188 16.224 13.474 14.7344 11.9844C13.2448 10.4948 12.5 8.6875 12.5 6.5625C10.3333 7.10417 8.54167 8.27083 7.125 10.0625C5.70833 11.8542 5 13.9167 5 16.25C5 19.0417 5.96875 21.4063 7.90625 23.3438C9.84375 25.2813 12.2083 26.25 15 26.25ZM11.25 19.0625C10.8125 19.0625 10.4427 18.9115 10.1406 18.6094C9.83854 18.3073 9.6875 17.9375 9.6875 17.5C9.6875 17.0625 9.83854 16.6927 10.1406 16.3906C10.4427 16.0885 10.8125 15.9375 11.25 15.9375C11.6875 15.9375 12.0573 16.0885 12.3594 16.3906C12.6615 16.6927 12.8125 17.0625 12.8125 17.5C12.8125 17.9375 12.6615 18.3073 12.3594 18.6094C12.0573 18.9115 11.6875 19.0625 11.25 19.0625ZM18.75 19.0625C18.3125 19.0625 17.9427 18.9115 17.6406 18.6094C17.3385 18.3073 17.1875 17.9375 17.1875 17.5C17.1875 17.0625 17.3385 16.6927 17.6406 16.3906C17.9427 16.0885 18.3125 15.9375 18.75 15.9375C19.1875 15.9375 19.5573 16.0885 19.8594 16.3906C20.1615 16.6927 20.3125 17.0625 20.3125 17.5C20.3125 17.9375 20.1615 18.3073 19.8594 18.6094C19.5573 18.9115 19.1875 19.0625 18.75 19.0625ZM2.9375 13C3.125 12.3125 3.36458 11.651 3.65625 11.0156C3.94791 10.3802 4.29166 9.78125 4.6875 9.21875C5.08333 8.65625 5.51562 8.125 5.98437 7.625C6.45312 7.125 6.95833 6.66667 7.5 6.25C6.60417 6.25 5.77604 6.46875 5.01562 6.90625C4.25521 7.34375 3.64583 7.94792 3.1875 8.71875C2.77083 9.38542 2.54167 10.0833 2.5 10.8125C2.45833 11.5417 2.60417 12.2708 2.9375 13ZM27.0625 13C27.3958 12.2708 27.5417 11.5417 27.5 10.8125C27.4583 10.0833 27.2292 9.38542 26.8125 8.71875C26.3542 7.94792 25.7448 7.34375 24.9844 6.90625C24.224 6.46875 23.3958 6.25 22.5 6.25C23.0417 6.66667 23.5469 7.125 24.0156 7.625C24.4844 8.125 24.9167 8.65625 25.3125 9.21875C25.7083 9.78125 26.0521 10.3802 26.3437 11.0156C26.6354 11.651 26.875 12.3125 27.0625 13ZM20.1562 11.7188C20.7604 11.7188 21.3229 11.625 21.8437 11.4375C22.3646 11.25 22.8438 10.9896 23.2812 10.6563C22.8438 9.98958 22.3229 9.39062 21.7188 8.85938C21.1146 8.32812 20.4583 7.86458 19.75 7.46875C19.0417 7.07292 18.2917 6.77083 17.5 6.5625C16.7083 6.35417 15.875 6.25 15 6.25V6.5625C15 8 15.5 9.21875 16.5 10.2188C17.5 11.2188 18.7188 11.7188 20.1562 11.7188ZM18.4687 4.25C18.0521 3.70833 17.5417 3.28125 16.9375 2.96875C16.3333 2.65625 15.6875 2.5 15 2.5C14.3125 2.5 13.6667 2.65625 13.0625 2.96875C12.4583 3.28125 11.9479 3.70833 11.5312 4.25C12.0729 4.08333 12.6354 3.95833 13.2187 3.875C13.8021 3.79167 14.3958 3.75 15 3.75C15.6042 3.75 16.1979 3.79167 16.7812 3.875C17.3646 3.95833 17.9271 4.08333 18.4687 4.25Z" fill="#1C1B1F"/>
</g>
</svg>
