<svg width="31" height="30" viewBox="0 0 31 30" fill="none" xmlns="http://www.w3.org/2000/svg">
<mask id="mask0_23_432" style="mask-type:alpha" maskUnits="userSpaceOnUse" x="0" y="0" width="31" height="30">
<rect x="0.5" width="30" height="30" fill="#D9D9D9"/>
</mask>
<g mask="url(#mask0_23_432)">
<path d="M14.25 21.25H16.75V16.25H21.75V13.75H16.75V8.75H14.25V13.75H9.25V16.25H14.25V21.25ZM15.5 27.5C13.7708 27.5 12.1458 27.1719 10.625 26.5156C9.10417 25.8594 7.78125 24.9688 6.65625 23.8438C5.53125 22.7188 4.64063 21.3958 3.98438 19.875C3.32812 18.3542 3 16.7292 3 15C3 13.2708 3.32812 11.6458 3.98438 10.125C4.64063 8.60417 5.53125 7.28125 6.65625 6.15625C7.78125 5.03125 9.10417 4.14063 10.625 3.48438C12.1458 2.82812 13.7708 2.5 15.5 2.5C17.2292 2.5 18.8542 2.82812 20.375 3.48438C21.8958 4.14063 23.2188 5.03125 24.3438 6.15625C25.4688 7.28125 26.3594 8.60417 27.0156 10.125C27.6719 11.6458 28 13.2708 28 15C28 16.7292 27.6719 18.3542 27.0156 19.875C26.3594 21.3958 25.4688 22.7188 24.3438 23.8438C23.2188 24.9688 21.8958 25.8594 20.375 26.5156C18.8542 27.1719 17.2292 27.5 15.5 27.5ZM15.5 25C18.2917 25 20.6562 24.0312 22.5938 22.0938C24.5312 20.1562 25.5 17.7917 25.5 15C25.5 12.2083 24.5312 9.84375 22.5938 7.90625C20.6562 5.96875 18.2917 5 15.5 5C12.7083 5 10.3438 5.96875 8.40625 7.90625C6.46875 9.84375 5.5 12.2083 5.5 15C5.5 17.7917 6.46875 20.1562 8.40625 22.0938C10.3438 24.0312 12.7083 25 15.5 25Z" fill="#FDF7FE"/>
</g>
</svg>
