<svg width="30" height="30" viewBox="0 0 30 30" fill="none" xmlns="http://www.w3.org/2000/svg">
<mask id="mask0_23_286" style="mask-type:alpha" maskUnits="userSpaceOnUse" x="0" y="0" width="30" height="30">
<rect width="30" height="30" fill="#D9D9D9"/>
</mask>
<g mask="url(#mask0_23_286)">
<path d="M6.25 27.5C5.5625 27.5 4.97396 27.2552 4.48438 26.7656C3.99479 26.276 3.75 25.6875 3.75 25V10C3.75 9.3125 3.99479 8.72396 4.48438 8.23438C4.97396 7.74479 5.5625 7.5 6.25 7.5H8.75C8.75 5.77083 9.35938 4.29688 10.5781 3.07812C11.7969 1.85937 13.2708 1.25 15 1.25C16.7292 1.25 18.2031 1.85937 19.4219 3.07812C20.6406 4.29688 21.25 5.77083 21.25 7.5H23.75C24.4375 7.5 25.026 7.74479 25.5156 8.23438C26.0052 8.72396 26.25 9.3125 26.25 10V25C26.25 25.6875 26.0052 26.276 25.5156 26.7656C25.026 27.2552 24.4375 27.5 23.75 27.5H6.25ZM6.25 25H23.75V10H6.25V25ZM15 17.5C16.7292 17.5 18.2031 16.8906 19.4219 15.6719C20.6406 14.4531 21.25 12.9792 21.25 11.25H18.75C18.75 12.2917 18.3854 13.1771 17.6562 13.9062C16.9271 14.6354 16.0417 15 15 15C13.9583 15 13.0729 14.6354 12.3438 13.9062C11.6146 13.1771 11.25 12.2917 11.25 11.25H8.75C8.75 12.9792 9.35938 14.4531 10.5781 15.6719C11.7969 16.8906 13.2708 17.5 15 17.5ZM11.25 7.5H18.75C18.75 6.45833 18.3854 5.57292 17.6562 4.84375C16.9271 4.11458 16.0417 3.75 15 3.75C13.9583 3.75 13.0729 4.11458 12.3438 4.84375C11.6146 5.57292 11.25 6.45833 11.25 7.5Z" fill="#1C1B1F"/>
</g>
</svg>
