<svg width="30" height="30" viewBox="0 0 30 30" fill="none" xmlns="http://www.w3.org/2000/svg">
<mask id="mask0_23_280" style="mask-type:alpha" maskUnits="userSpaceOnUse" x="0" y="0" width="30" height="30">
<rect width="30" height="30" fill="#D9D9D9"/>
</mask>
<g mask="url(#mask0_23_280)">
<path d="M2.5 23.75V16.25C2.5 15.6875 2.61458 15.1771 2.84375 14.7188C3.07292 14.2604 3.375 13.8542 3.75 13.5V10C3.75 8.95833 4.11458 8.07292 4.84375 7.34375C5.57292 6.61458 6.45833 6.25 7.5 6.25H12.5C12.9792 6.25 13.4271 6.33854 13.8438 6.51562C14.2604 6.69271 14.6458 6.9375 15 7.25C15.3542 6.9375 15.7396 6.69271 16.1562 6.51562C16.5729 6.33854 17.0208 6.25 17.5 6.25H22.5C23.5417 6.25 24.4271 6.61458 25.1562 7.34375C25.8854 8.07292 26.25 8.95833 26.25 10V13.5C26.625 13.8542 26.9271 14.2604 27.1562 14.7188C27.3854 15.1771 27.5 15.6875 27.5 16.25V23.75H25V21.25H5V23.75H2.5ZM16.25 12.5H23.75V10C23.75 9.64583 23.6302 9.34896 23.3906 9.10938C23.151 8.86979 22.8542 8.75 22.5 8.75H17.5C17.1458 8.75 16.849 8.86979 16.6094 9.10938C16.3698 9.34896 16.25 9.64583 16.25 10V12.5ZM6.25 12.5H13.75V10C13.75 9.64583 13.6302 9.34896 13.3906 9.10938C13.151 8.86979 12.8542 8.75 12.5 8.75H7.5C7.14583 8.75 6.84896 8.86979 6.60938 9.10938C6.36979 9.34896 6.25 9.64583 6.25 10V12.5ZM5 18.75H25V16.25C25 15.8958 24.8802 15.599 24.6406 15.3594C24.401 15.1198 24.1042 15 23.75 15H6.25C5.89583 15 5.59896 15.1198 5.35938 15.3594C5.11979 15.599 5 15.8958 5 16.25V18.75Z" fill="#1C1B1F"/>
</g>
</svg>
