<svg width="30" height="30" viewBox="0 0 30 30" fill="none" xmlns="http://www.w3.org/2000/svg">
<mask id="mask0_209_14" style="mask-type:alpha" maskUnits="userSpaceOnUse" x="0" y="0" width="30" height="30">
<rect width="30" height="30" fill="#D9D9D9"/>
</mask>
<g mask="url(#mask0_209_14)">
<path d="M9.375 27.5C8.16667 27.5 7.13542 27.0729 6.28125 26.2188C5.42708 25.3646 5 24.3333 5 23.125V6.875C5 5.66667 5.42708 4.63542 6.28125 3.78125C7.13542 2.92708 8.16667 2.5 9.375 2.5H25V21.25C24.4792 21.25 24.0365 21.4323 23.6719 21.7969C23.3073 22.1615 23.125 22.6042 23.125 23.125C23.125 23.6458 23.3073 24.0885 23.6719 24.4531C24.0365 24.8177 24.4792 25 25 25V27.5H9.375ZM7.5 19.1562C7.79167 19.0104 8.09375 18.9062 8.40625 18.8438C8.71875 18.7812 9.04167 18.75 9.375 18.75H10V5H9.375C8.85417 5 8.41146 5.18229 8.04688 5.54688C7.68229 5.91146 7.5 6.35417 7.5 6.875V19.1562ZM12.5 18.75H22.5V5H12.5V18.75ZM9.375 25H21.0312C20.9062 24.7083 20.8073 24.4115 20.7344 24.1094C20.6615 23.8073 20.625 23.4792 20.625 23.125C20.625 22.7917 20.6562 22.4688 20.7188 22.1562C20.7812 21.8438 20.8854 21.5417 21.0312 21.25H9.375C8.83333 21.25 8.38542 21.4323 8.03125 21.7969C7.67708 22.1615 7.5 22.6042 7.5 23.125C7.5 23.6667 7.67708 24.1146 8.03125 24.4688C8.38542 24.8229 8.83333 25 9.375 25Z" fill="#1C1B1F"/>
</g>
</svg>
