<svg width="30" height="30" viewBox="0 0 30 30" fill="none" xmlns="http://www.w3.org/2000/svg">
<mask id="mask0_23_298" style="mask-type:alpha" maskUnits="userSpaceOnUse" x="0" y="0" width="30" height="30">
<rect width="30" height="30" fill="#D9D9D9"/>
</mask>
<g mask="url(#mask0_23_298)">
<path d="M15 27.5C13.2917 27.5 11.6771 27.1719 10.1562 26.5156C8.63542 25.8594 7.30729 24.9635 6.17188 23.8281C5.03646 22.6927 4.14063 21.3646 3.48438 19.8438C2.82812 18.3229 2.5 16.7083 2.5 15C2.5 13.2708 2.82812 11.6458 3.48438 10.125C4.14063 8.60417 5.03646 7.28125 6.17188 6.15625C7.30729 5.03125 8.63542 4.14063 10.1562 3.48438C11.6771 2.82812 13.2917 2.5 15 2.5C16.7292 2.5 18.3542 2.82812 19.875 3.48438C21.3958 4.14063 22.7188 5.03125 23.8438 6.15625C24.9688 7.28125 25.8594 8.60417 26.5156 10.125C27.1719 11.6458 27.5 13.2708 27.5 15C27.5 16.7083 27.1719 18.3229 26.5156 19.8438C25.8594 21.3646 24.9688 22.6927 23.8438 23.8281C22.7188 24.9635 21.3958 25.8594 19.875 26.5156C18.3542 27.1719 16.7292 27.5 15 27.5ZM15 5C12.6875 5 10.6458 5.69271 8.875 7.07812C7.10417 8.46354 5.92708 10.2292 5.34375 12.375C5.76042 12.2708 6.19271 12.0677 6.64062 11.7656C7.08854 11.4635 7.60417 10.7292 8.1875 9.5625C8.5 8.91667 8.95833 8.41146 9.5625 8.04688C10.1667 7.68229 10.8333 7.5 11.5625 7.5H18.4375C19.1667 7.5 19.8333 7.68229 20.4375 8.04688C21.0417 8.41146 21.5 8.91667 21.8125 9.5625C22.3958 10.75 22.9219 11.4896 23.3906 11.7812C23.8594 12.0729 24.2812 12.2708 24.6562 12.375C24.0729 10.2292 22.901 8.46354 21.1406 7.07812C19.3802 5.69271 17.3333 5 15 5ZM15 25C17.7917 25 20.1615 24.0208 22.1094 22.0625C24.0573 20.1042 25.0208 17.7292 25 14.9375C23.5208 14.7917 22.3854 14.3281 21.5938 13.5469C20.8021 12.7656 20.125 11.8125 19.5625 10.6875C19.4583 10.4583 19.3073 10.2865 19.1094 10.1719C18.9115 10.0573 18.6979 10 18.4688 10H11.5625C11.3125 10 11.0885 10.0573 10.8906 10.1719C10.6927 10.2865 10.5417 10.4583 10.4375 10.6875C9.875 11.8333 9.1875 12.7969 8.375 13.5781C7.5625 14.3594 6.4375 14.8229 5 14.9688C5 17.7604 5.97396 20.1302 7.92188 22.0781C9.86979 24.026 12.2292 25 15 25ZM11.25 17.8125C10.8125 17.8125 10.4427 17.6615 10.1406 17.3594C9.83854 17.0573 9.6875 16.6875 9.6875 16.25C9.6875 15.8125 9.83854 15.4427 10.1406 15.1406C10.4427 14.8385 10.8125 14.6875 11.25 14.6875C11.6875 14.6875 12.0573 14.8385 12.3594 15.1406C12.6615 15.4427 12.8125 15.8125 12.8125 16.25C12.8125 16.6875 12.6615 17.0573 12.3594 17.3594C12.0573 17.6615 11.6875 17.8125 11.25 17.8125ZM18.75 17.8125C18.3125 17.8125 17.9427 17.6615 17.6406 17.3594C17.3385 17.0573 17.1875 16.6875 17.1875 16.25C17.1875 15.8125 17.3385 15.4427 17.6406 15.1406C17.9427 14.8385 18.3125 14.6875 18.75 14.6875C19.1875 14.6875 19.5573 14.8385 19.8594 15.1406C20.1615 15.4427 20.3125 15.8125 20.3125 16.25C20.3125 16.6875 20.1615 17.0573 19.8594 17.3594C19.5573 17.6615 19.1875 17.8125 18.75 17.8125Z" fill="#1C1B1F"/>
</g>
</svg>
