<svg width="30" height="30" viewBox="0 0 30 30" fill="none" xmlns="http://www.w3.org/2000/svg">
<mask id="mask0_23_421" style="mask-type:alpha" maskUnits="userSpaceOnUse" x="0" y="0" width="30" height="30">
<rect width="30" height="30" fill="#D9D9D9"/>
</mask>
<g mask="url(#mask0_23_421)">
<path d="M13.75 16.25C14.1042 16.25 14.401 16.1302 14.6406 15.8906C14.8802 15.651 15 15.3542 15 15C15 14.6458 14.8802 14.349 14.6406 14.1094C14.401 13.8698 14.1042 13.75 13.75 13.75C13.3958 13.75 13.099 13.8698 12.8594 14.1094C12.6198 14.349 12.5 14.6458 12.5 15C12.5 15.3542 12.6198 15.651 12.8594 15.8906C13.099 16.1302 13.3958 16.25 13.75 16.25ZM8.75 26.25V23.75L16.25 22.5V8.59375C16.25 8.28125 16.1563 8 15.9688 7.75C15.7813 7.5 15.5417 7.35417 15.25 7.3125L8.75 6.25V3.75L15.625 4.875C16.5417 5.04167 17.2917 5.46875 17.875 6.15625C18.4583 6.84375 18.75 7.64583 18.75 8.5625V24.5625L8.75 26.25ZM3.75 26.25V23.75H6.25V6.25C6.25 5.54167 6.49479 4.94792 6.98438 4.46875C7.47396 3.98958 8.0625 3.75 8.75 3.75H21.25C21.9583 3.75 22.5521 3.98958 23.0312 4.46875C23.5104 4.94792 23.75 5.54167 23.75 6.25V23.75H26.25V26.25H3.75ZM8.75 23.75H21.25V6.25H8.75V23.75Z" fill="white"/>
</g>
</svg>
