<svg width="30" height="30" viewBox="0 0 30 30" fill="none" xmlns="http://www.w3.org/2000/svg">
<mask id="mask0_23_310" style="mask-type:alpha" maskUnits="userSpaceOnUse" x="0" y="0" width="30" height="30">
<rect width="30" height="30" fill="#D9D9D9"/>
</mask>
<g mask="url(#mask0_23_310)">
<path d="M6.25 26.25C5.5625 26.25 4.97396 26.0052 4.48438 25.5156C3.99479 25.026 3.75 24.4375 3.75 23.75V6.25C3.75 5.5625 3.99479 4.97396 4.48438 4.48438C4.97396 3.99479 5.5625 3.75 6.25 3.75H11.5C11.7917 3 12.25 2.39583 12.875 1.9375C13.5 1.47917 14.2083 1.25 15 1.25C15.7917 1.25 16.5 1.47917 17.125 1.9375C17.75 2.39583 18.2083 3 18.5 3.75H23.75C24.4375 3.75 25.026 3.99479 25.5156 4.48438C26.0052 4.97396 26.25 5.5625 26.25 6.25V23.75C26.25 24.4375 26.0052 25.026 25.5156 25.5156C25.026 26.0052 24.4375 26.25 23.75 26.25H6.25ZM15 5.3125C15.2708 5.3125 15.4948 5.22396 15.6719 5.04688C15.849 4.86979 15.9375 4.64583 15.9375 4.375C15.9375 4.10417 15.849 3.88021 15.6719 3.70312C15.4948 3.52604 15.2708 3.4375 15 3.4375C14.7292 3.4375 14.5052 3.52604 14.3281 3.70312C14.151 3.88021 14.0625 4.10417 14.0625 4.375C14.0625 4.64583 14.151 4.86979 14.3281 5.04688C14.5052 5.22396 14.7292 5.3125 15 5.3125ZM6.25 22.3125C7.375 21.2083 8.68229 20.3385 10.1719 19.7031C11.6615 19.0677 13.2708 18.75 15 18.75C16.7292 18.75 18.3385 19.0677 19.8281 19.7031C21.3177 20.3385 22.625 21.2083 23.75 22.3125V6.25H6.25V22.3125ZM15 16.25C16.2083 16.25 17.2396 15.8229 18.0938 14.9688C18.9479 14.1146 19.375 13.0833 19.375 11.875C19.375 10.6667 18.9479 9.63542 18.0938 8.78125C17.2396 7.92708 16.2083 7.5 15 7.5C13.7917 7.5 12.7604 7.92708 11.9062 8.78125C11.0521 9.63542 10.625 10.6667 10.625 11.875C10.625 13.0833 11.0521 14.1146 11.9062 14.9688C12.7604 15.8229 13.7917 16.25 15 16.25ZM8.75 23.75H21.25V23.4375C20.375 22.7083 19.4062 22.1615 18.3438 21.7969C17.2812 21.4323 16.1667 21.25 15 21.25C13.8333 21.25 12.7188 21.4323 11.6563 21.7969C10.5938 22.1615 9.625 22.7083 8.75 23.4375V23.75ZM15 13.75C14.4792 13.75 14.0365 13.5677 13.6719 13.2031C13.3073 12.8385 13.125 12.3958 13.125 11.875C13.125 11.3542 13.3073 10.9115 13.6719 10.5469C14.0365 10.1823 14.4792 10 15 10C15.5208 10 15.9635 10.1823 16.3281 10.5469C16.6927 10.9115 16.875 11.3542 16.875 11.875C16.875 12.3958 16.6927 12.8385 16.3281 13.2031C15.9635 13.5677 15.5208 13.75 15 13.75Z" fill="#1C1B1F"/>
</g>
</svg>
