<svg width="30" height="30" viewBox="0 0 30 30" fill="none" xmlns="http://www.w3.org/2000/svg">
<mask id="mask0_168_40" style="mask-type:alpha" maskUnits="userSpaceOnUse" x="0" y="0" width="30" height="30">
<rect width="30" height="30" fill="#D9D9D9"/>
</mask>
<g mask="url(#mask0_168_40)">
<path d="M15 5C14.3125 5 13.724 4.75521 13.2344 4.26562C12.7448 3.77604 12.5 3.1875 12.5 2.5C12.5 1.8125 12.7448 1.22396 13.2344 0.734375C13.724 0.244792 14.3125 0 15 0C15.6875 0 16.276 0.244792 16.7656 0.734375C17.2552 1.22396 17.5 1.8125 17.5 2.5C17.5 3.1875 17.2552 3.77604 16.7656 4.26562C16.276 4.75521 15.6875 5 15 5ZM11.25 23.75V8.75C10 8.64583 8.72917 8.48958 7.4375 8.28125C6.14583 8.07292 4.91667 7.8125 3.75 7.5L4.375 5C6 5.4375 7.72917 5.75521 9.5625 5.95313C11.3958 6.15104 13.2083 6.25 15 6.25C16.7917 6.25 18.6042 6.15104 20.4375 5.95313C22.2708 5.75521 24 5.4375 25.625 5L26.25 7.5C25.0833 7.8125 23.8542 8.07292 22.5625 8.28125C21.2708 8.48958 20 8.64583 18.75 8.75V23.75H16.25V16.25H13.75V23.75H11.25ZM10 30C9.64583 30 9.34896 29.8802 9.10938 29.6406C8.86979 29.401 8.75 29.1042 8.75 28.75C8.75 28.3958 8.86979 28.099 9.10938 27.8594C9.34896 27.6198 9.64583 27.5 10 27.5C10.3542 27.5 10.651 27.6198 10.8906 27.8594C11.1302 28.099 11.25 28.3958 11.25 28.75C11.25 29.1042 11.1302 29.401 10.8906 29.6406C10.651 29.8802 10.3542 30 10 30ZM15 30C14.6458 30 14.349 29.8802 14.1094 29.6406C13.8698 29.401 13.75 29.1042 13.75 28.75C13.75 28.3958 13.8698 28.099 14.1094 27.8594C14.349 27.6198 14.6458 27.5 15 27.5C15.3542 27.5 15.651 27.6198 15.8906 27.8594C16.1302 28.099 16.25 28.3958 16.25 28.75C16.25 29.1042 16.1302 29.401 15.8906 29.6406C15.651 29.8802 15.3542 30 15 30ZM20 30C19.6458 30 19.349 29.8802 19.1094 29.6406C18.8698 29.401 18.75 29.1042 18.75 28.75C18.75 28.3958 18.8698 28.099 19.1094 27.8594C19.349 27.6198 19.6458 27.5 20 27.5C20.3542 27.5 20.651 27.6198 20.8906 27.8594C21.1302 28.099 21.25 28.3958 21.25 28.75C21.25 29.1042 21.1302 29.401 20.8906 29.6406C20.651 29.8802 20.3542 30 20 30Z" fill="#1C1B1F"/>
</g>
</svg>
