<svg width="30" height="30" viewBox="0 0 30 30" fill="none" xmlns="http://www.w3.org/2000/svg">
<mask id="mask0_209_28" style="mask-type:alpha" maskUnits="userSpaceOnUse" x="0" y="0" width="30" height="30">
<rect width="30" height="30" fill="#D9D9D9"/>
</mask>
<g mask="url(#mask0_209_28)">
<path d="M6.25 20.2188C6.45833 20.1562 6.66146 20.1042 6.85938 20.0625C7.05729 20.0208 7.27083 20 7.5 20H8.75V5H7.5C7.14583 5 6.84896 5.11979 6.60938 5.35938C6.36979 5.59896 6.25 5.89583 6.25 6.25V20.2188ZM7.5 27.5C6.45833 27.5 5.57292 27.1354 4.84375 26.4062C4.11458 25.6771 3.75 24.7917 3.75 23.75V6.25C3.75 5.20833 4.11458 4.32292 4.84375 3.59375C5.57292 2.86458 6.45833 2.5 7.5 2.5H16.25V5H11.25V20H18.75V16.25H21.25V22.5H7.5C7.14583 22.5 6.84896 22.6198 6.60938 22.8594C6.36979 23.099 6.25 23.3958 6.25 23.75C6.25 24.1042 6.36979 24.401 6.60938 24.6406C6.84896 24.8802 7.14583 25 7.5 25H23.75V15H26.25V27.5H7.5ZM21.875 15C21.875 13.0833 22.5417 11.4583 23.875 10.125C25.2083 8.79167 26.8333 8.125 28.75 8.125C26.8333 8.125 25.2083 7.45833 23.875 6.125C22.5417 4.79167 21.875 3.16667 21.875 1.25C21.875 3.16667 21.2083 4.79167 19.875 6.125C18.5417 7.45833 16.9167 8.125 15 8.125C16.9167 8.125 18.5417 8.79167 19.875 10.125C21.2083 11.4583 21.875 13.0833 21.875 15Z" fill="#1C1B1F"/>
</g>
</svg>
