<svg width="30" height="30" viewBox="0 0 30 30" fill="none" xmlns="http://www.w3.org/2000/svg">
<mask id="mask0_347_35" style="mask-type:alpha" maskUnits="userSpaceOnUse" x="0" y="0" width="30" height="30">
<rect width="30" height="30" fill="#D9D9D9"/>
</mask>
<g mask="url(#mask0_347_35)">
<path d="M15 18.75C16.1667 18.75 17.2188 18.4635 18.1563 17.8906C19.0938 17.3177 19.8333 16.5625 20.375 15.625C19.6458 15.0208 18.8229 14.5573 17.9062 14.2344C16.9896 13.9115 16.0208 13.75 15 13.75C13.9792 13.75 13.0104 13.9115 12.0938 14.2344C11.1771 14.5573 10.3542 15.0208 9.625 15.625C10.1667 16.5625 10.9062 17.3177 11.8438 17.8906C12.7812 18.4635 13.8333 18.75 15 18.75ZM15 12.5C15.6875 12.5 16.276 12.2552 16.7656 11.7656C17.2552 11.276 17.5 10.6875 17.5 10C17.5 9.3125 17.2552 8.72396 16.7656 8.23438C16.276 7.74479 15.6875 7.5 15 7.5C14.3125 7.5 13.724 7.74479 13.2344 8.23438C12.7448 8.72396 12.5 9.3125 12.5 10C12.5 10.6875 12.7448 11.276 13.2344 11.7656C13.724 12.2552 14.3125 12.5 15 12.5ZM15 24.1875C17.5417 21.8542 19.4271 19.7344 20.6563 17.8281C21.8854 15.9219 22.5 14.2292 22.5 12.75C22.5 10.4792 21.776 8.61979 20.3281 7.17188C18.8802 5.72396 17.1042 5 15 5C12.8958 5 11.1198 5.72396 9.67188 7.17188C8.22396 8.61979 7.5 10.4792 7.5 12.75C7.5 14.2292 8.11458 15.9219 9.34375 17.8281C10.5729 19.7344 12.4583 21.8542 15 24.1875ZM15 27.5C11.6458 24.6458 9.14062 21.9948 7.48438 19.5469C5.82812 17.099 5 14.8333 5 12.75C5 9.625 6.00521 7.13542 8.01563 5.28125C10.026 3.42708 12.3542 2.5 15 2.5C17.6458 2.5 19.974 3.42708 21.9844 5.28125C23.9948 7.13542 25 9.625 25 12.75C25 14.8333 24.1719 17.099 22.5156 19.5469C20.8594 21.9948 18.3542 24.6458 15 27.5Z" fill="#1C1B1F"/>
</g>
</svg>
