<svg width="50" height="50" viewBox="0 0 50 50" fill="none" xmlns="http://www.w3.org/2000/svg">
<path d="M50 7.75862C50 3.30463 47.2801 0 42.5926 0C40.1954 0 38.3145 0.901724 37.047 1.78297C36.7012 1.5417 36.2096 1.55237 35.8752 1.83093C35.6422 2.025 35.5403 2.3042 35.5735 2.57295C33.2656 0.823707 30.8056 0 29.6296 0C26.6204 0 25 0.862069 25 0.862069C25 0.862069 23.3796 0 20.3704 0C19.1944 0 16.7344 0.823707 14.4265 2.57295C14.4598 2.3042 14.3579 2.02511 14.1248 1.83093C13.7904 1.55237 13.2988 1.5417 12.953 1.78297C11.6855 0.901724 9.80463 0 7.40741 0C2.71991 0 0 3.30463 0 7.75862C0 12.2809 5.40127 24.4253 2.77778 31.8966C2.77778 31.8966 8.84109 29.9512 11.5249 22.3692C11.691 22.3981 11.862 22.4138 12.037 22.4138V23.2759C12.037 25.3639 13.3855 27.2472 15.4558 28.0504L19.4444 29.5977V32.378C19.4444 33.1201 18.9344 33.779 18.1782 34.0137L14.4348 35.296L14.3708 35.2006C14.1032 34.802 13.5421 34.6765 13.1093 34.9183L10.0678 36.6173C9.65637 36.8472 9.50741 37.3265 9.70579 37.7209C9.27778 38.282 8.99144 38.9393 8.89016 39.6466L7.82674 47.072C7.60475 48.6224 8.90023 50 10.5802 50H39.4199C41.0999 50 42.3954 48.6224 42.1733 47.072L41.1098 39.6466C41.0086 38.9393 40.7223 38.2819 40.2942 37.7209C40.4926 37.3264 40.3435 36.8472 39.9322 36.6173L36.8907 34.9183C36.4579 34.6765 35.8968 34.802 35.6292 35.2006L35.5652 35.296L31.8218 34.0137C31.0655 33.779 30.5556 33.1201 30.5556 32.378V29.5976L34.5441 28.0503C36.6145 27.2473 37.963 25.364 37.963 23.2759V22.4138C38.138 22.4138 38.309 22.3981 38.4751 22.3692C41.1589 29.9512 47.2222 31.8966 47.2222 31.8966C44.5988 24.4253 50 12.2809 50 7.75862Z" fill="#FFD7A3"/>
<path d="M30.5556 29.5259H19.4444V32.378V32.3781C19.4444 32.4203 19.4425 32.4619 19.4391 32.5033C19.4375 32.5248 19.4345 32.5459 19.4319 32.5674C19.4299 32.5846 19.428 32.6018 19.4254 32.6189C19.4204 32.652 19.414 32.6845 19.4071 32.7169C19.4069 32.7176 19.4067 32.7183 19.4066 32.7191C19.3038 33.1932 18.9914 33.6057 18.5472 33.8545C26.2932 35.1002 30.5556 29.5259 30.5556 29.5259Z" fill="#FDC88E"/>
<path d="M35.1852 3.44828C35.1852 3.44828 37.9051 0 42.5926 0C47.2801 0 50 3.30463 50 7.75862C50 12.2809 44.5987 24.4253 47.2222 31.8966C47.2222 31.8966 40.2778 29.6695 37.963 20.6897C35.8403 12.455 38.8889 6.89655 38.8889 6.89655L35.1852 3.44828Z" fill="#D48F60"/>
<path d="M38.4259 4.31033C38.4259 4.31033 41.3773 2.26291 43.5185 3.44826C48.2316 6.05742 44.3812 13.2254 43.5185 17.2414C42.3611 22.6293 42.8241 27.8017 47.2222 31.8965C47.2222 31.8965 40.2778 29.6695 37.963 20.6896C35.8403 12.4549 38.4259 6.89653 38.4259 6.89653V4.31033Z" fill="#C57E52"/>
<path d="M39.3625 5.45973C39.7436 5.14227 39.7762 4.59723 39.4352 4.24249L37.1828 1.89874C36.8418 1.54389 36.2564 1.51361 35.8754 1.83107C35.4942 2.14852 35.4617 2.69357 35.8027 3.04831L38.0551 5.39206C38.396 5.74691 38.9814 5.77719 39.3625 5.45973Z" fill="#43A0C5"/>
<path d="M14.8148 3.44828C14.8148 3.44828 12.0949 0 7.40741 0C2.71991 0 0 3.30463 0 7.75862C0 12.2809 5.40127 24.4253 2.77778 31.8966C2.77778 31.8966 9.72222 29.6695 12.037 20.6897C14.1597 12.455 11.1111 6.89655 11.1111 6.89655L14.8148 3.44828Z" fill="#D48F60"/>
<path d="M11.6898 4.31033C11.6898 4.31033 8.62268 2.26291 6.48147 3.44826C1.7684 6.05742 5.61874 13.2254 6.48147 17.2414C7.63888 22.6293 7.17592 27.8017 2.77777 31.8965C2.77777 31.8965 9.72222 29.6695 12.037 20.6896C14.1597 12.4549 11.6898 6.89653 11.6898 6.89653V4.31033Z" fill="#C57E52"/>
<path d="M10.6376 5.45973C10.2565 5.14227 10.224 4.59723 10.5649 4.24249L12.8174 1.89874C13.1583 1.54389 13.7438 1.51361 14.1248 1.83107C14.5059 2.14852 14.5384 2.69357 14.1975 3.04831L11.945 5.39206C11.6041 5.74691 11.0188 5.77719 10.6376 5.45973Z" fill="#43A0C5"/>
<path d="M37.963 17.2414V15.5173C37.963 13.1368 35.8902 9.48279 33.3333 9.48279H16.6667C14.1098 9.48279 12.037 13.1368 12.037 15.5173V17.2414C10.5029 17.2414 9.25926 18.3994 9.25926 19.8276C9.25926 21.256 10.5029 22.4138 12.037 22.4138V23.2759C12.037 25.3639 13.3855 27.2472 15.4558 28.0505L21.4385 30.3714C22.567 30.8092 23.7774 31.0345 24.9999 31.0345C26.2223 31.0345 27.4326 30.8091 28.5611 30.3714L34.5442 28.0504C36.6145 27.2473 37.963 25.364 37.963 23.2759V22.4138C39.4971 22.4138 40.7407 21.256 40.7407 19.8276C40.7407 18.3993 39.4971 17.2414 37.963 17.2414Z" fill="#FFE1B2"/>
<path d="M18.5185 20.6896C18.0093 20.6896 17.5926 20.3017 17.5926 19.8275V18.9655C17.5926 18.4913 18.0093 18.1034 18.5185 18.1034C19.0278 18.1034 19.4444 18.4913 19.4444 18.9655V19.8275C19.4444 20.3017 19.0278 20.6896 18.5185 20.6896Z" fill="#623F33"/>
<path d="M31.4815 20.6896C30.9722 20.6896 30.5556 20.3017 30.5556 19.8275V18.9655C30.5556 18.4913 30.9722 18.1034 31.4815 18.1034C31.9907 18.1034 32.4074 18.4913 32.4074 18.9655V19.8275C32.4074 20.3017 31.9907 20.6896 31.4815 20.6896Z" fill="#623F33"/>
<path d="M25 26.7478C23.3538 26.7478 21.814 26.3706 20.7755 25.7128C20.3528 25.4451 20.2428 24.9088 20.5309 24.5152C20.8179 24.1221 21.3944 24.0198 21.8171 24.2876C22.545 24.7484 23.7349 25.0238 25 25.0238C26.265 25.0238 27.455 24.7484 28.1829 24.2876C28.6065 24.019 29.1816 24.1217 29.4691 24.5152C29.7571 24.9088 29.6472 25.4451 29.2245 25.7128C28.1861 26.3706 26.6462 26.7478 25 26.7478Z" fill="#E4B07B"/>
<path d="M12.037 17.2414C10.5029 17.2414 9.25926 18.3992 9.25926 19.8276C9.25926 21.2559 10.5029 22.4138 12.037 22.4138V23.2759C12.037 25.364 13.3855 27.2473 15.4558 28.0504L21.4384 30.3713C21.7313 30.4849 22.0301 30.5827 22.3328 30.6676C19.6888 28.8668 17.9288 27.2926 16.8976 26.2632C16.1473 25.5143 15.7407 24.5261 15.7407 23.5019V18.6839C18.3912 17.8226 25.8308 14.9934 25.9259 10.3448C25.9482 9.26012 25.8722 8.12046 25.733 7.54309C24.348 14.4518 12.9718 17.2414 12.037 17.2414Z" fill="#FFD7A3"/>
<path d="M35.6293 35.2006L32.2975 40.1637C31.7898 40.9199 30.8997 41.3793 29.9419 41.3793H20.0581C19.1003 41.3793 18.2102 40.9199 17.7025 40.1637L14.3708 35.2006C14.1032 34.802 13.5421 34.6765 13.1093 34.9183L10.0678 36.6173C9.62373 36.8654 9.48449 37.4045 9.75903 37.8134L13.8889 43.9655H36.1111L40.241 37.8133C40.5155 37.4044 40.3763 36.8654 39.9322 36.6172L36.8907 34.9182C36.458 34.6765 35.8968 34.8021 35.6293 35.2006Z" fill="#57B9DD"/>
<path d="M36.1111 43.9656H13.8889V50.0001H36.1111V43.9656Z" fill="#43A0C5"/>
<path d="M29.6296 0C26.6204 0 25 0.862069 25 0.862069C25 0.862069 23.3796 0 20.3704 0C17.3611 0 5.94132 5.39386 10.1852 17.8939C10.1852 17.8939 25 15.4454 25 9.48276C25 15.4454 39.8148 17.8939 39.8148 17.8939C44.0587 5.39386 32.6389 0 29.6296 0Z" fill="#D48F60"/>
<path d="M25 0.8625V0.862069C25 0.862069 23.3796 0 20.3704 0C17.3611 0 5.94144 5.39386 10.1852 17.8939C10.1852 17.8939 11.9786 17.5968 14.316 16.9596C11.7001 5.75086 22.1287 0.871121 25 0.8625Z" fill="#CA8357"/>
</svg>
